<svg xmlns="http://www.w3.org/2000/svg" viewBox="0 0 67.8 67.8"><defs><style>.cls-1{fill:#394e61;}.cls-2{isolation:isolate;}.cls-3{fill:#fff;}</style></defs><title>Asset 3</title><g id="Layer_2" data-name="Layer 2"><g id="Layer_1-2" data-name="Layer 1"><g id="Lag_2" data-name="Lag 2"><rect class="cls-1" width="67.8" height="67.8"/></g><g class="cls-2"><path class="cls-3" d="M49.25,52H40.48L35.57,32.92c-.19-.68-.5-2.09-.93-4.21s-.7-3.56-.76-4.29c-.1.9-.35,2.33-.75,4.31s-.7,3.39-.92,4.23L27.32,52H18.58L9.32,15.68h7.57L21.54,35.5Q22.76,41,23.3,45c.1-.95.33-2.41.68-4.39s.69-3.51,1-4.6l5.29-20.34h7.27L42.84,36q.34,1.36.87,4.17c.35,1.87.61,3.48.8,4.82.16-1.29.42-2.9.79-4.83s.69-3.49,1-4.68l4.62-19.82h7.57Z"/></g></g></g></svg>